<svg width="699" height="116" viewBox="0 0 699 116" fill="none" xmlns="http://www.w3.org/2000/svg">
<path d="M4.79936 57.5597V52.4886L27.1715 17.0909H30.8505V24.946H28.3647L11.4613 51.6932V52.0909H41.5891V57.5597H4.79936ZM28.7624 68V56.0185V53.657V17.0909H34.6289V68H28.7624ZM67.5098 68.696C63.7645 68.696 60.5744 67.6768 57.9395 65.6385C55.3045 63.5836 53.291 60.6089 51.899 56.7145C50.5069 52.8035 49.8109 48.0805 49.8109 42.5455C49.8109 37.0436 50.5069 32.3454 51.899 28.451C53.3076 24.54 55.3294 21.5571 57.9643 19.5021C60.6158 17.4306 63.7976 16.3949 67.5098 16.3949C71.2219 16.3949 74.3954 17.4306 77.0304 19.5021C79.6819 21.5571 81.7037 24.54 83.0957 28.451C84.5043 32.3454 85.2086 37.0436 85.2086 42.5455C85.2086 48.0805 84.5126 52.8035 83.1206 56.7145C81.7285 60.6089 79.715 63.5836 77.0801 65.6385C74.4451 67.6768 71.255 68.696 67.5098 68.696ZM67.5098 63.2273C71.2219 63.2273 74.1054 61.4375 76.1603 57.858C78.2153 54.2784 79.2427 49.1742 79.2427 42.5455C79.2427 38.1373 78.7704 34.3838 77.8258 31.2848C76.8978 28.1858 75.5555 25.8243 73.7988 24.2003C72.0588 22.5762 69.9624 21.7642 67.5098 21.7642C63.8308 21.7642 60.9556 23.5788 58.8841 27.2081C56.8126 30.8208 55.7768 35.9332 55.7768 42.5455C55.7768 46.9536 56.2408 50.6989 57.1689 53.7812C58.0969 56.8636 59.4309 59.2086 61.171 60.8161C62.9276 62.4235 65.0405 63.2273 67.5098 63.2273ZM111.26 68.696C107.515 68.696 104.324 67.6768 101.689 65.6385C99.0545 63.5836 97.041 60.6089 95.649 56.7145C94.2569 52.8035 93.5609 48.0805 93.5609 42.5455C93.5609 37.0436 94.2569 32.3454 95.649 28.451C97.0576 24.54 99.0794 21.5571 101.714 19.5021C104.366 17.4306 107.548 16.3949 111.26 16.3949C114.972 16.3949 118.145 17.4306 120.78 19.5021C123.432 21.5571 125.454 24.54 126.846 28.451C128.254 32.3454 128.959 37.0436 128.959 42.5455C128.959 48.0805 128.263 52.8035 126.871 56.7145C125.479 60.6089 123.465 63.5836 120.83 65.6385C118.195 67.6768 115.005 68.696 111.26 68.696ZM111.26 63.2273C114.972 63.2273 117.855 61.4375 119.91 57.858C121.965 54.2784 122.993 49.1742 122.993 42.5455C122.993 38.1373 122.52 34.3838 121.576 31.2848C120.648 28.1858 119.305 25.8243 117.549 24.2003C115.809 22.5762 113.712 21.7642 111.26 21.7642C107.581 21.7642 104.706 23.5788 102.634 27.2081C100.563 30.8208 99.5268 35.9332 99.5268 42.5455C99.5268 46.9536 99.9908 50.6989 100.919 53.7812C101.847 56.8636 103.181 59.2086 104.921 60.8161C106.678 62.4235 108.791 63.2273 111.26 63.2273ZM153.419 59.0511V26.2386H158.987V59.0511H153.419ZM139.797 45.429V39.8608H172.609V45.429H139.797ZM2.05762 110V94H7.46387C8.71908 94 9.74512 94.2266 10.542 94.6797C11.3441 95.1276 11.9378 95.7344 12.3232 96.5C12.7087 97.2656 12.9014 98.1198 12.9014 99.0625C12.9014 100.005 12.7087 100.862 12.3232 101.633C11.943 102.404 11.3545 103.018 10.5576 103.477C9.76074 103.93 8.73991 104.156 7.49512 104.156H3.62012V102.438H7.43262C8.29199 102.438 8.9821 102.289 9.50293 101.992C10.0238 101.695 10.4014 101.294 10.6357 100.789C10.8753 100.279 10.9951 99.7031 10.9951 99.0625C10.9951 98.4219 10.8753 97.849 10.6357 97.3437C10.4014 96.8385 10.0212 96.4427 9.49512 96.1562C8.96908 95.8646 8.27116 95.7187 7.40137 95.7187H3.99512V110H2.05762ZM15.7725 110V98H17.5537V99.8125H17.6787C17.8975 99.2188 18.2933 98.737 18.8662 98.3672C19.4391 97.9974 20.085 97.8125 20.8037 97.8125C20.9391 97.8125 21.1084 97.8151 21.3115 97.8203C21.5146 97.8255 21.6683 97.8333 21.7725 97.8438V99.7187C21.71 99.7031 21.5667 99.6797 21.3428 99.6484C21.124 99.612 20.8923 99.5937 20.6475 99.5937C20.0641 99.5937 19.5433 99.7161 19.085 99.9609C18.6318 100.201 18.2725 100.534 18.0068 100.961C17.7464 101.383 17.6162 101.865 17.6162 102.406V110H15.7725ZM28.4678 110.25C27.3844 110.25 26.4339 109.992 25.6162 109.477C24.8037 108.961 24.1683 108.24 23.71 107.312C23.2568 106.385 23.0303 105.302 23.0303 104.062C23.0303 102.812 23.2568 101.721 23.71 100.789C24.1683 99.8568 24.8037 99.1328 25.6162 98.6172C26.4339 98.1016 27.3844 97.8438 28.4678 97.8438C29.5511 97.8438 30.499 98.1016 31.3115 98.6172C32.1292 99.1328 32.7646 99.8568 33.2178 100.789C33.6761 101.721 33.9053 102.812 33.9053 104.062C33.9053 105.302 33.6761 106.385 33.2178 107.312C32.7646 108.24 32.1292 108.961 31.3115 109.477C30.499 109.992 29.5511 110.25 28.4678 110.25ZM28.4678 108.594C29.2907 108.594 29.9678 108.383 30.499 107.961C31.0303 107.539 31.4235 106.984 31.6787 106.297C31.9339 105.609 32.0615 104.865 32.0615 104.062C32.0615 103.26 31.9339 102.513 31.6787 101.82C31.4235 101.128 31.0303 100.568 30.499 100.141C29.9678 99.7135 29.2907 99.5 28.4678 99.5C27.6449 99.5 26.9678 99.7135 26.4365 100.141C25.9053 100.568 25.512 101.128 25.2568 101.82C25.0016 102.513 24.874 103.26 24.874 104.062C24.874 104.865 25.0016 105.609 25.2568 106.297C25.512 106.984 25.9053 107.539 26.4365 107.961C26.9678 108.383 27.6449 108.594 28.4678 108.594ZM36.7197 98H38.5635V110.875C38.5635 111.615 38.4359 112.255 38.1807 112.797C37.9307 113.339 37.5505 113.758 37.04 114.055C36.5348 114.352 35.8968 114.5 35.126 114.5C35.0635 114.5 35.001 114.5 34.9385 114.5C34.876 114.5 34.8135 114.5 34.751 114.5V112.781C34.8135 112.781 34.8708 112.781 34.9229 112.781C34.9749 112.781 35.0322 112.781 35.0947 112.781C35.6572 112.781 36.0687 112.615 36.3291 112.281C36.5895 111.953 36.7197 111.484 36.7197 110.875V98ZM37.626 96C37.2666 96 36.9567 95.8776 36.6963 95.6328C36.4411 95.388 36.3135 95.0938 36.3135 94.75C36.3135 94.4063 36.4411 94.112 36.6963 93.8672C36.9567 93.6224 37.2666 93.5 37.626 93.5C37.9854 93.5 38.2926 93.6224 38.5479 93.8672C38.8083 94.112 38.9385 94.4063 38.9385 94.75C38.9385 95.0938 38.8083 95.388 38.5479 95.6328C38.2926 95.8776 37.9854 96 37.626 96ZM46.9717 110.25C45.8154 110.25 44.818 109.995 43.9795 109.484C43.1462 108.969 42.5029 108.25 42.0498 107.328C41.6019 106.401 41.3779 105.323 41.3779 104.094C41.3779 102.865 41.6019 101.781 42.0498 100.844C42.5029 99.901 43.1331 99.1667 43.9404 98.6406C44.7529 98.1094 45.7008 97.8438 46.7842 97.8438C47.4092 97.8438 48.0264 97.9479 48.6357 98.1562C49.2451 98.3646 49.7998 98.7031 50.2998 99.1719C50.7998 99.6354 51.1982 100.25 51.4951 101.016C51.792 101.781 51.9404 102.724 51.9404 103.844V104.625H42.6904V103.031H50.0654C50.0654 102.354 49.93 101.75 49.6592 101.219C49.3936 100.687 49.0133 100.268 48.5186 99.9609C48.029 99.6536 47.4508 99.5 46.7842 99.5C46.0498 99.5 45.4144 99.6823 44.8779 100.047C44.3467 100.406 43.9378 100.875 43.6514 101.453C43.3649 102.031 43.2217 102.651 43.2217 103.312V104.375C43.2217 105.281 43.3779 106.049 43.6904 106.68C44.0081 107.305 44.4482 107.781 45.0107 108.109C45.5732 108.432 46.2269 108.594 46.9717 108.594C47.4561 108.594 47.8936 108.526 48.2842 108.391C48.68 108.25 49.0212 108.042 49.3076 107.766C49.5941 107.484 49.8154 107.135 49.9717 106.719L51.7529 107.219C51.5654 107.823 51.2503 108.354 50.8076 108.812C50.3649 109.266 49.818 109.62 49.167 109.875C48.516 110.125 47.7842 110.25 46.9717 110.25ZM59.6201 110.25C58.4951 110.25 57.5264 109.984 56.7139 109.453C55.9014 108.922 55.2764 108.19 54.8389 107.258C54.4014 106.326 54.1826 105.26 54.1826 104.062C54.1826 102.844 54.4066 101.768 54.8545 100.836C55.3076 99.8984 55.9378 99.1667 56.7451 98.6406C57.5576 98.1094 58.5055 97.8438 59.5889 97.8438C60.4326 97.8438 61.193 98 61.8701 98.3125C62.5472 98.625 63.1019 99.0625 63.5342 99.625C63.9665 100.187 64.2347 100.844 64.3389 101.594H62.4951C62.3545 101.047 62.042 100.562 61.5576 100.141C61.0785 99.7135 60.4326 99.5 59.6201 99.5C58.9014 99.5 58.2712 99.6875 57.7295 100.062C57.193 100.432 56.7738 100.956 56.4717 101.633C56.1748 102.305 56.0264 103.094 56.0264 104C56.0264 104.927 56.1722 105.734 56.4639 106.422C56.7607 107.109 57.1774 107.643 57.7139 108.023C58.2555 108.404 58.891 108.594 59.6201 108.594C60.0993 108.594 60.5342 108.51 60.9248 108.344C61.3154 108.177 61.6462 107.938 61.917 107.625C62.1878 107.312 62.3805 106.937 62.4951 106.5H64.3389C64.2347 107.208 63.9769 107.846 63.5654 108.414C63.1592 108.977 62.6201 109.424 61.9482 109.758C61.2816 110.086 60.5055 110.25 59.6201 110.25ZM72.2529 98V99.5625H66.0342V98H72.2529ZM67.8467 95.125H69.6904V106.562C69.6904 107.083 69.766 107.474 69.917 107.734C70.0732 107.99 70.2712 108.161 70.5107 108.25C70.7555 108.333 71.0133 108.375 71.2842 108.375C71.4873 108.375 71.654 108.365 71.7842 108.344C71.9144 108.318 72.0186 108.297 72.0967 108.281L72.4717 109.937C72.3467 109.984 72.1722 110.031 71.9482 110.078C71.7243 110.13 71.4404 110.156 71.0967 110.156C70.5758 110.156 70.0654 110.044 69.5654 109.82C69.0706 109.596 68.6592 109.255 68.3311 108.797C68.0081 108.339 67.8467 107.76 67.8467 107.062V95.125ZM94.3389 99H92.4014C92.2868 98.4427 92.0863 97.9531 91.7998 97.5312C91.5186 97.1094 91.1748 96.7552 90.7686 96.4688C90.3675 96.1771 89.9222 95.9583 89.4326 95.8125C88.943 95.6667 88.4326 95.5937 87.9014 95.5937C86.9326 95.5937 86.055 95.8385 85.2686 96.3281C84.4873 96.8177 83.8649 97.5391 83.4014 98.4922C82.943 99.4453 82.7139 100.615 82.7139 102C82.7139 103.385 82.943 104.555 83.4014 105.508C83.8649 106.461 84.4873 107.182 85.2686 107.672C86.055 108.161 86.9326 108.406 87.9014 108.406C88.4326 108.406 88.943 108.333 89.4326 108.187C89.9222 108.042 90.3675 107.826 90.7686 107.539C91.1748 107.247 91.5186 106.891 91.7998 106.469C92.0863 106.042 92.2868 105.552 92.4014 105H94.3389C94.193 105.818 93.9274 106.549 93.542 107.195C93.1566 107.841 92.6774 108.391 92.1045 108.844C91.5316 109.292 90.8883 109.633 90.1748 109.867C89.4665 110.102 88.7087 110.219 87.9014 110.219C86.5368 110.219 85.3232 109.885 84.2607 109.219C83.1982 108.552 82.3623 107.604 81.7529 106.375C81.1436 105.146 80.8389 103.687 80.8389 102C80.8389 100.312 81.1436 98.8542 81.7529 97.625C82.3623 96.3958 83.1982 95.4479 84.2607 94.7812C85.3232 94.1146 86.5368 93.7812 87.9014 93.7812C88.7087 93.7812 89.4665 93.8984 90.1748 94.1328C90.8883 94.3672 91.5316 94.7109 92.1045 95.1641C92.6774 95.612 93.1566 96.1589 93.542 96.8047C93.9274 97.4453 94.193 98.1771 94.3389 99ZM102.095 110.25C101.011 110.25 100.061 109.992 99.2432 109.477C98.4307 108.961 97.7952 108.24 97.3369 107.312C96.8838 106.385 96.6572 105.302 96.6572 104.062C96.6572 102.812 96.8838 101.721 97.3369 100.789C97.7952 99.8568 98.4307 99.1328 99.2432 98.6172C100.061 98.1016 101.011 97.8438 102.095 97.8438C103.178 97.8438 104.126 98.1016 104.938 98.6172C105.756 99.1328 106.392 99.8568 106.845 100.789C107.303 101.721 107.532 102.812 107.532 104.062C107.532 105.302 107.303 106.385 106.845 107.312C106.392 108.24 105.756 108.961 104.938 109.477C104.126 109.992 103.178 110.25 102.095 110.25ZM102.095 108.594C102.918 108.594 103.595 108.383 104.126 107.961C104.657 107.539 105.05 106.984 105.306 106.297C105.561 105.609 105.688 104.865 105.688 104.062C105.688 103.26 105.561 102.513 105.306 101.82C105.05 101.128 104.657 100.568 104.126 100.141C103.595 99.7135 102.918 99.5 102.095 99.5C101.272 99.5 100.595 99.7135 100.063 100.141C99.5322 100.568 99.139 101.128 98.8838 101.82C98.6286 102.513 98.501 103.26 98.501 104.062C98.501 104.865 98.6286 105.609 98.8838 106.297C99.139 106.984 99.5322 107.539 100.063 107.961C100.595 108.383 101.272 108.594 102.095 108.594ZM110.347 110V98H112.128V99.875H112.284C112.534 99.2344 112.938 98.737 113.495 98.3828C114.052 98.0234 114.722 97.8438 115.503 97.8438C116.295 97.8438 116.953 98.0234 117.479 98.3828C118.011 98.737 118.425 99.2344 118.722 99.875H118.847C119.154 99.2552 119.615 98.763 120.229 98.3984C120.844 98.0286 121.581 97.8438 122.44 97.8438C123.513 97.8438 124.391 98.1797 125.073 98.8516C125.756 99.5182 126.097 100.557 126.097 101.969V110H124.253V101.969C124.253 101.083 124.011 100.451 123.526 100.07C123.042 99.6901 122.472 99.5 121.815 99.5C120.972 99.5 120.318 99.7552 119.854 100.266C119.391 100.771 119.159 101.411 119.159 102.187V110H117.284V101.781C117.284 101.099 117.063 100.549 116.62 100.133C116.177 99.7109 115.607 99.5 114.909 99.5C114.43 99.5 113.982 99.6276 113.565 99.8828C113.154 100.138 112.821 100.492 112.565 100.945C112.315 101.393 112.19 101.911 112.19 102.5V110H110.347ZM129.468 114.5V98H131.249V99.9062H131.468C131.603 99.6979 131.791 99.4323 132.03 99.1094C132.275 98.7812 132.624 98.4896 133.077 98.2344C133.535 97.974 134.155 97.8438 134.937 97.8438C135.947 97.8438 136.838 98.0964 137.608 98.6016C138.379 99.1068 138.981 99.8229 139.413 100.75C139.845 101.677 140.062 102.771 140.062 104.031C140.062 105.302 139.845 106.404 139.413 107.336C138.981 108.263 138.382 108.982 137.616 109.492C136.851 109.997 135.968 110.25 134.968 110.25C134.197 110.25 133.58 110.122 133.116 109.867C132.653 109.607 132.296 109.312 132.046 108.984C131.796 108.651 131.603 108.375 131.468 108.156H131.312V114.5H129.468ZM131.28 104C131.28 104.906 131.413 105.706 131.679 106.398C131.944 107.086 132.332 107.625 132.843 108.016C133.353 108.401 133.978 108.594 134.718 108.594C135.489 108.594 136.132 108.391 136.647 107.984C137.168 107.573 137.559 107.021 137.819 106.328C138.085 105.63 138.218 104.854 138.218 104C138.218 103.156 138.088 102.396 137.827 101.719C137.572 101.036 137.184 100.497 136.663 100.102C136.147 99.7005 135.499 99.5 134.718 99.5C133.968 99.5 133.338 99.6901 132.827 100.07C132.317 100.445 131.931 100.971 131.671 101.648C131.41 102.32 131.28 103.104 131.28 104ZM144.718 94V110H142.874V94H144.718ZM153.126 110.25C151.97 110.25 150.972 109.995 150.134 109.484C149.3 108.969 148.657 108.25 148.204 107.328C147.756 106.401 147.532 105.323 147.532 104.094C147.532 102.865 147.756 101.781 148.204 100.844C148.657 99.901 149.287 99.1667 150.095 98.6406C150.907 98.1094 151.855 97.8438 152.938 97.8438C153.563 97.8438 154.181 97.9479 154.79 98.1562C155.399 98.3646 155.954 98.7031 156.454 99.1719C156.954 99.6354 157.353 100.25 157.649 101.016C157.946 101.781 158.095 102.724 158.095 103.844V104.625H148.845V103.031H156.22C156.22 102.354 156.084 101.75 155.813 101.219C155.548 100.687 155.168 100.268 154.673 99.9609C154.183 99.6536 153.605 99.5 152.938 99.5C152.204 99.5 151.569 99.6823 151.032 100.047C150.501 100.406 150.092 100.875 149.806 101.453C149.519 102.031 149.376 102.651 149.376 103.312V104.375C149.376 105.281 149.532 106.049 149.845 106.68C150.162 107.305 150.603 107.781 151.165 108.109C151.728 108.432 152.381 108.594 153.126 108.594C153.61 108.594 154.048 108.526 154.438 108.391C154.834 108.25 155.175 108.042 155.462 107.766C155.748 107.484 155.97 107.135 156.126 106.719L157.907 107.219C157.72 107.823 157.405 108.354 156.962 108.812C156.519 109.266 155.972 109.62 155.321 109.875C154.67 110.125 153.938 110.25 153.126 110.25ZM166.118 98V99.5625H159.899V98H166.118ZM161.712 95.125H163.556V106.562C163.556 107.083 163.631 107.474 163.782 107.734C163.938 107.99 164.136 108.161 164.376 108.25C164.621 108.333 164.879 108.375 165.149 108.375C165.353 108.375 165.519 108.365 165.649 108.344C165.78 108.318 165.884 108.297 165.962 108.281L166.337 109.937C166.212 109.984 166.037 110.031 165.813 110.078C165.59 110.13 165.306 110.156 164.962 110.156C164.441 110.156 163.931 110.044 163.431 109.82C162.936 109.596 162.524 109.255 162.196 108.797C161.873 108.339 161.712 107.76 161.712 107.062V95.125ZM173.794 110.25C172.638 110.25 171.64 109.995 170.802 109.484C169.968 108.969 169.325 108.25 168.872 107.328C168.424 106.401 168.2 105.323 168.2 104.094C168.2 102.865 168.424 101.781 168.872 100.844C169.325 99.901 169.955 99.1667 170.763 98.6406C171.575 98.1094 172.523 97.8438 173.606 97.8438C174.231 97.8438 174.849 97.9479 175.458 98.1562C176.067 98.3646 176.622 98.7031 177.122 99.1719C177.622 99.6354 178.021 100.25 178.317 101.016C178.614 101.781 178.763 102.724 178.763 103.844V104.625H169.513V103.031H176.888C176.888 102.354 176.752 101.75 176.481 101.219C176.216 100.687 175.836 100.268 175.341 99.9609C174.851 99.6536 174.273 99.5 173.606 99.5C172.872 99.5 172.237 99.6823 171.7 100.047C171.169 100.406 170.76 100.875 170.474 101.453C170.187 102.031 170.044 102.651 170.044 103.312V104.375C170.044 105.281 170.2 106.049 170.513 106.68C170.83 107.305 171.271 107.781 171.833 108.109C172.396 108.432 173.049 108.594 173.794 108.594C174.278 108.594 174.716 108.526 175.106 108.391C175.502 108.25 175.843 108.042 176.13 107.766C176.416 107.484 176.638 107.135 176.794 106.719L178.575 107.219C178.388 107.823 178.073 108.354 177.63 108.812C177.187 109.266 176.64 109.62 175.989 109.875C175.338 110.125 174.606 110.25 173.794 110.25Z" fill="#545454"/>
<path d="M289.511 68.696C287.423 68.6629 285.335 68.2652 283.247 67.5028C281.159 66.7405 279.253 65.4562 277.53 63.6499C275.806 61.8269 274.422 59.366 273.378 56.267C272.334 53.1515 271.812 49.2405 271.812 44.5341C271.812 40.0265 272.235 36.0327 273.08 32.5526C273.925 29.0559 275.152 26.1143 276.759 23.728C278.367 21.325 280.305 19.5021 282.576 18.2592C284.863 17.0163 287.44 16.3949 290.307 16.3949C293.157 16.3949 295.693 16.9666 297.913 18.1101C300.15 19.237 301.973 20.8113 303.382 22.8331C304.791 24.8549 305.702 27.1832 306.116 29.8182H300.051C299.488 27.5312 298.394 25.6338 296.77 24.1257C295.146 22.6177 292.991 21.8636 290.307 21.8636C286.363 21.8636 283.255 23.5788 280.985 27.0092C278.731 30.4396 277.596 35.2538 277.579 41.4517H277.977C278.905 40.0431 280.007 38.8416 281.283 37.8473C282.576 36.8364 284.001 36.0575 285.559 35.5107C287.117 34.9638 288.765 34.6903 290.506 34.6903C293.422 34.6903 296.09 35.4195 298.51 36.8778C300.929 38.3196 302.868 40.3165 304.327 42.8686C305.785 45.4041 306.514 48.3125 306.514 51.5938C306.514 54.7424 305.81 57.6259 304.401 60.2443C302.992 62.8461 301.012 64.9176 298.46 66.4588C295.925 67.9834 292.942 68.7292 289.511 68.696ZM289.511 63.2273C291.599 63.2273 293.472 62.7053 295.129 61.6612C296.803 60.6172 298.12 59.2169 299.081 57.4602C300.059 55.7036 300.548 53.7481 300.548 51.5938C300.548 49.4891 300.076 47.575 299.131 45.8516C298.203 44.1115 296.919 42.7277 295.278 41.7003C293.654 40.6728 291.798 40.1591 289.71 40.1591C288.136 40.1591 286.669 40.474 285.31 41.1037C283.951 41.7169 282.758 42.562 281.731 43.6392C280.72 44.7164 279.924 45.951 279.344 47.343C278.764 48.7185 278.474 50.1686 278.474 51.6932C278.474 53.715 278.947 55.6042 279.891 57.3608C280.852 59.1174 282.162 60.5343 283.819 61.6115C285.492 62.6887 287.39 63.2273 289.511 63.2273ZM332.895 68.696C329.149 68.696 325.959 67.6768 323.324 65.6385C320.689 63.5836 318.676 60.6089 317.284 56.7145C315.892 52.8035 315.196 48.0805 315.196 42.5455C315.196 37.0436 315.892 32.3454 317.284 28.451C318.692 24.54 320.714 21.5571 323.349 19.5021C326.001 17.4306 329.182 16.3949 332.895 16.3949C336.607 16.3949 339.78 17.4306 342.415 19.5021C345.067 21.5571 347.088 24.54 348.48 28.451C349.889 32.3454 350.593 37.0436 350.593 42.5455C350.593 48.0805 349.897 52.8035 348.505 56.7145C347.113 60.6089 345.1 63.5836 342.465 65.6385C339.83 67.6768 336.64 68.696 332.895 68.696ZM332.895 63.2273C336.607 63.2273 339.49 61.4375 341.545 57.858C343.6 54.2784 344.627 49.1742 344.627 42.5455C344.627 38.1373 344.155 34.3838 343.211 31.2848C342.283 28.1858 340.94 25.8243 339.184 24.2003C337.444 22.5762 335.347 21.7642 332.895 21.7642C329.216 21.7642 326.34 23.5788 324.269 27.2081C322.197 30.8208 321.162 35.9332 321.162 42.5455C321.162 46.9536 321.626 50.6989 322.554 53.7812C323.482 56.8636 324.816 59.2086 326.556 60.8161C328.312 62.4235 330.425 63.2273 332.895 63.2273ZM376.645 68.696C372.899 68.696 369.709 67.6768 367.074 65.6385C364.439 63.5836 362.426 60.6089 361.034 56.7145C359.642 52.8035 358.946 48.0805 358.946 42.5455C358.946 37.0436 359.642 32.3454 361.034 28.451C362.442 24.54 364.464 21.5571 367.099 19.5021C369.751 17.4306 372.932 16.3949 376.645 16.3949C380.357 16.3949 383.53 17.4306 386.165 19.5021C388.817 21.5571 390.838 24.54 392.23 28.451C393.639 32.3454 394.343 37.0436 394.343 42.5455C394.343 48.0805 393.647 52.8035 392.255 56.7145C390.863 60.6089 388.85 63.5836 386.215 65.6385C383.58 67.6768 380.39 68.696 376.645 68.696ZM376.645 63.2273C380.357 63.2273 383.24 61.4375 385.295 57.858C387.35 54.2784 388.377 49.1742 388.377 42.5455C388.377 38.1373 387.905 34.3838 386.961 31.2848C386.033 28.1858 384.69 25.8243 382.934 24.2003C381.194 22.5762 379.097 21.7642 376.645 21.7642C372.966 21.7642 370.09 23.5788 368.019 27.2081C365.947 30.8208 364.912 35.9332 364.912 42.5455C364.912 46.9536 365.376 50.6989 366.304 53.7812C367.232 56.8636 368.566 59.2086 370.306 60.8161C372.062 62.4235 374.175 63.2273 376.645 63.2273ZM418.804 59.0511V26.2386H424.372V59.0511H418.804ZM405.181 45.429V39.8608H437.994V45.429H405.181ZM282.522 98C282.429 97.2083 282.049 96.5938 281.382 96.1562C280.715 95.7187 279.897 95.5 278.929 95.5C278.22 95.5 277.601 95.6146 277.069 95.8437C276.543 96.0729 276.132 96.388 275.835 96.7891C275.543 97.1901 275.397 97.6458 275.397 98.1562C275.397 98.5833 275.499 98.9505 275.702 99.2578C275.91 99.5599 276.176 99.8125 276.499 100.016C276.822 100.214 277.16 100.378 277.515 100.508C277.869 100.633 278.194 100.734 278.491 100.812L280.116 101.25C280.533 101.359 280.996 101.51 281.507 101.703C282.022 101.896 282.515 102.159 282.983 102.492C283.457 102.82 283.848 103.242 284.155 103.758C284.463 104.273 284.616 104.906 284.616 105.656C284.616 106.521 284.39 107.302 283.937 108C283.489 108.698 282.832 109.253 281.968 109.664C281.108 110.076 280.064 110.281 278.835 110.281C277.689 110.281 276.697 110.096 275.858 109.727C275.025 109.357 274.369 108.841 273.89 108.18C273.416 107.518 273.147 106.75 273.085 105.875H275.085C275.137 106.479 275.34 106.979 275.694 107.375C276.054 107.766 276.507 108.057 277.054 108.25C277.606 108.437 278.2 108.531 278.835 108.531C279.575 108.531 280.239 108.411 280.827 108.172C281.416 107.927 281.882 107.589 282.226 107.156C282.569 106.719 282.741 106.208 282.741 105.625C282.741 105.094 282.593 104.661 282.296 104.328C281.999 103.995 281.608 103.724 281.124 103.516C280.64 103.307 280.116 103.125 279.554 102.969L277.585 102.406C276.335 102.047 275.345 101.534 274.616 100.867C273.887 100.201 273.522 99.3281 273.522 98.25C273.522 97.3542 273.765 96.5729 274.249 95.9062C274.739 95.2344 275.395 94.7135 276.218 94.3437C277.046 93.9687 277.97 93.7812 278.991 93.7812C280.022 93.7812 280.939 93.9661 281.741 94.3359C282.543 94.7005 283.179 95.2005 283.647 95.8359C284.121 96.4714 284.371 97.1927 284.397 98H282.522ZM291.083 110.281C290.323 110.281 289.632 110.138 289.013 109.852C288.393 109.56 287.901 109.141 287.536 108.594C287.172 108.042 286.989 107.375 286.989 106.594C286.989 105.906 287.125 105.349 287.396 104.922C287.666 104.49 288.028 104.151 288.481 103.906C288.935 103.661 289.435 103.479 289.981 103.359C290.534 103.234 291.088 103.135 291.646 103.063C292.375 102.969 292.966 102.898 293.419 102.852C293.877 102.799 294.211 102.714 294.419 102.594C294.632 102.474 294.739 102.266 294.739 101.969V101.906C294.739 101.135 294.528 100.536 294.106 100.109C293.69 99.6823 293.057 99.4687 292.208 99.4687C291.328 99.4687 290.638 99.6615 290.138 100.047C289.638 100.432 289.286 100.844 289.083 101.281L287.333 100.656C287.646 99.9271 288.062 99.3594 288.583 98.9531C289.109 98.5417 289.682 98.2552 290.302 98.0937C290.927 97.9271 291.541 97.8438 292.146 97.8438C292.531 97.8438 292.974 97.8906 293.474 97.9844C293.979 98.0729 294.466 98.2578 294.935 98.5391C295.409 98.8203 295.802 99.2448 296.114 99.8125C296.427 100.38 296.583 101.141 296.583 102.094V110H294.739V108.375H294.646C294.521 108.635 294.312 108.914 294.021 109.211C293.729 109.508 293.341 109.76 292.856 109.969C292.372 110.177 291.781 110.281 291.083 110.281ZM291.364 108.625C292.093 108.625 292.708 108.482 293.208 108.195C293.713 107.909 294.093 107.539 294.349 107.086C294.609 106.633 294.739 106.156 294.739 105.656V103.969C294.661 104.062 294.489 104.148 294.224 104.227C293.963 104.299 293.661 104.365 293.317 104.422C292.979 104.474 292.648 104.521 292.325 104.562C292.007 104.599 291.75 104.63 291.552 104.656C291.073 104.719 290.625 104.82 290.208 104.961C289.797 105.096 289.463 105.302 289.208 105.578C288.958 105.849 288.833 106.219 288.833 106.687C288.833 107.328 289.07 107.812 289.544 108.141C290.023 108.464 290.63 108.625 291.364 108.625ZM305.167 98V99.5625H298.948V98H305.167ZM300.761 95.125H302.604V106.562C302.604 107.083 302.68 107.474 302.831 107.734C302.987 107.99 303.185 108.161 303.425 108.25C303.67 108.333 303.927 108.375 304.198 108.375C304.401 108.375 304.568 108.365 304.698 108.344C304.828 108.318 304.933 108.297 305.011 108.281L305.386 109.937C305.261 109.984 305.086 110.031 304.862 110.078C304.638 110.13 304.354 110.156 304.011 110.156C303.49 110.156 302.979 110.044 302.479 109.82C301.985 109.596 301.573 109.255 301.245 108.797C300.922 108.339 300.761 107.76 300.761 107.062V95.125ZM307.94 110V98H309.784V110H307.94ZM308.878 96C308.519 96 308.209 95.8776 307.948 95.6328C307.693 95.388 307.565 95.0938 307.565 94.75C307.565 94.4063 307.693 94.112 307.948 93.8672C308.209 93.6224 308.519 93.5 308.878 93.5C309.237 93.5 309.545 93.6224 309.8 93.8672C310.06 94.112 310.19 94.4063 310.19 94.75C310.19 95.0938 310.06 95.388 309.8 95.6328C309.545 95.8776 309.237 96 308.878 96ZM321.661 100.687L320.005 101.156C319.901 100.88 319.747 100.612 319.544 100.352C319.346 100.086 319.075 99.8672 318.731 99.6953C318.388 99.5234 317.948 99.4375 317.411 99.4375C316.677 99.4375 316.065 99.6068 315.575 99.9453C315.091 100.279 314.849 100.703 314.849 101.219C314.849 101.677 315.015 102.039 315.349 102.305C315.682 102.57 316.203 102.792 316.911 102.969L318.692 103.406C319.765 103.667 320.565 104.065 321.091 104.602C321.617 105.133 321.88 105.818 321.88 106.656C321.88 107.344 321.682 107.958 321.286 108.5C320.896 109.042 320.349 109.469 319.646 109.781C318.942 110.094 318.125 110.25 317.192 110.25C315.968 110.25 314.955 109.984 314.153 109.453C313.351 108.922 312.843 108.146 312.63 107.125L314.38 106.687C314.547 107.333 314.862 107.818 315.325 108.141C315.794 108.464 316.406 108.625 317.161 108.625C318.021 108.625 318.703 108.443 319.208 108.078C319.718 107.708 319.974 107.266 319.974 106.75C319.974 106.333 319.828 105.984 319.536 105.703C319.244 105.417 318.797 105.203 318.192 105.062L316.192 104.594C315.093 104.333 314.286 103.93 313.771 103.383C313.26 102.831 313.005 102.141 313.005 101.312C313.005 100.635 313.195 100.036 313.575 99.5156C313.961 98.9948 314.484 98.5859 315.146 98.2891C315.812 97.9922 316.567 97.8438 317.411 97.8438C318.599 97.8438 319.531 98.1042 320.208 98.625C320.89 99.1458 321.375 99.8333 321.661 100.687ZM329.999 98V99.5625H323.53V98H329.999ZM325.468 110V96.3438C325.468 95.6562 325.629 95.0833 325.952 94.625C326.275 94.1667 326.694 93.8229 327.21 93.5937C327.726 93.3646 328.27 93.25 328.843 93.25C329.296 93.25 329.666 93.2865 329.952 93.3594C330.239 93.4323 330.452 93.5 330.593 93.5625L330.062 95.1562C329.968 95.125 329.838 95.0859 329.671 95.0391C329.509 94.9922 329.296 94.9687 329.03 94.9687C328.421 94.9687 327.981 95.1224 327.71 95.4297C327.444 95.737 327.312 96.1875 327.312 96.7812V110H325.468ZM332.583 110V98H334.427V110H332.583ZM333.521 96C333.161 96 332.851 95.8776 332.591 95.6328C332.336 95.388 332.208 95.0938 332.208 94.75C332.208 94.4063 332.336 94.112 332.591 93.8672C332.851 93.6224 333.161 93.5 333.521 93.5C333.88 93.5 334.187 93.6224 334.442 93.8672C334.703 94.112 334.833 94.4063 334.833 94.75C334.833 95.0938 334.703 95.388 334.442 95.6328C334.187 95.8776 333.88 96 333.521 96ZM342.835 110.25C341.679 110.25 340.681 109.995 339.843 109.484C339.009 108.969 338.366 108.25 337.913 107.328C337.465 106.401 337.241 105.323 337.241 104.094C337.241 102.865 337.465 101.781 337.913 100.844C338.366 99.901 338.996 99.1667 339.804 98.6406C340.616 98.1094 341.564 97.8438 342.647 97.8438C343.272 97.8438 343.89 97.9479 344.499 98.1562C345.108 98.3646 345.663 98.7031 346.163 99.1719C346.663 99.6354 347.062 100.25 347.358 101.016C347.655 101.781 347.804 102.724 347.804 103.844V104.625H338.554V103.031H345.929C345.929 102.354 345.793 101.75 345.522 101.219C345.257 100.687 344.877 100.268 344.382 99.9609C343.892 99.6536 343.314 99.5 342.647 99.5C341.913 99.5 341.278 99.6823 340.741 100.047C340.21 100.406 339.801 100.875 339.515 101.453C339.228 102.031 339.085 102.651 339.085 103.312V104.375C339.085 105.281 339.241 106.049 339.554 106.68C339.871 107.305 340.312 107.781 340.874 108.109C341.437 108.432 342.09 108.594 342.835 108.594C343.319 108.594 343.757 108.526 344.147 108.391C344.543 108.25 344.884 108.042 345.171 107.766C345.457 107.484 345.679 107.135 345.835 106.719L347.616 107.219C347.429 107.823 347.114 108.354 346.671 108.812C346.228 109.266 345.681 109.62 345.03 109.875C344.379 110.125 343.647 110.25 342.835 110.25ZM355.14 110.25C354.14 110.25 353.257 109.997 352.491 109.492C351.726 108.982 351.127 108.263 350.694 107.336C350.262 106.404 350.046 105.302 350.046 104.031C350.046 102.771 350.262 101.677 350.694 100.75C351.127 99.8229 351.728 99.1068 352.499 98.6016C353.27 98.0964 354.16 97.8438 355.171 97.8438C355.952 97.8438 356.569 97.974 357.022 98.2344C357.481 98.4896 357.83 98.7812 358.069 99.1094C358.314 99.4323 358.504 99.6979 358.64 99.9062H358.796V94H360.64V110H358.858V108.156H358.64C358.504 108.375 358.312 108.651 358.062 108.984C357.812 109.312 357.455 109.607 356.991 109.867C356.528 110.122 355.91 110.25 355.14 110.25ZM355.39 108.594C356.129 108.594 356.754 108.401 357.265 108.016C357.775 107.625 358.163 107.086 358.429 106.398C358.694 105.706 358.827 104.906 358.827 104C358.827 103.104 358.697 102.32 358.437 101.648C358.176 100.971 357.791 100.445 357.28 100.07C356.77 99.6901 356.14 99.5 355.39 99.5C354.608 99.5 353.957 99.7005 353.437 100.102C352.921 100.497 352.533 101.036 352.272 101.719C352.017 102.396 351.89 103.156 351.89 104C351.89 104.854 352.02 105.63 352.28 106.328C352.546 107.021 352.937 107.573 353.452 107.984C353.973 108.391 354.619 108.594 355.39 108.594ZM383.585 99H381.647C381.533 98.4427 381.332 97.9531 381.046 97.5312C380.765 97.1094 380.421 96.7552 380.015 96.4688C379.614 96.1771 379.168 95.9583 378.679 95.8125C378.189 95.6667 377.679 95.5937 377.147 95.5937C376.179 95.5937 375.301 95.8385 374.515 96.3281C373.733 96.8177 373.111 97.5391 372.647 98.4922C372.189 99.4453 371.96 100.615 371.96 102C371.96 103.385 372.189 104.555 372.647 105.508C373.111 106.461 373.733 107.182 374.515 107.672C375.301 108.161 376.179 108.406 377.147 108.406C377.679 108.406 378.189 108.333 378.679 108.187C379.168 108.042 379.614 107.826 380.015 107.539C380.421 107.247 380.765 106.891 381.046 106.469C381.332 106.042 381.533 105.552 381.647 105H383.585C383.439 105.818 383.174 106.549 382.788 107.195C382.403 107.841 381.924 108.391 381.351 108.844C380.778 109.292 380.134 109.633 379.421 109.867C378.713 110.102 377.955 110.219 377.147 110.219C375.783 110.219 374.569 109.885 373.507 109.219C372.444 108.552 371.608 107.604 370.999 106.375C370.39 105.146 370.085 103.687 370.085 102C370.085 100.312 370.39 98.8542 370.999 97.625C371.608 96.3958 372.444 95.4479 373.507 94.7812C374.569 94.1146 375.783 93.7812 377.147 93.7812C377.955 93.7812 378.713 93.8984 379.421 94.1328C380.134 94.3672 380.778 94.7109 381.351 95.1641C381.924 95.612 382.403 96.1589 382.788 96.8047C383.174 97.4453 383.439 98.1771 383.585 99ZM388.31 94V110H386.466V94H388.31ZM391.687 110V98H393.53V110H391.687ZM392.624 96C392.265 96 391.955 95.8776 391.694 95.6328C391.439 95.388 391.312 95.0938 391.312 94.75C391.312 94.4063 391.439 94.112 391.694 93.8672C391.955 93.6224 392.265 93.5 392.624 93.5C392.983 93.5 393.291 93.6224 393.546 93.8672C393.806 94.112 393.937 94.4063 393.937 94.75C393.937 95.0938 393.806 95.388 393.546 95.6328C393.291 95.8776 392.983 96 392.624 96ZM401.938 110.25C400.782 110.25 399.785 109.995 398.946 109.484C398.113 108.969 397.47 108.25 397.017 107.328C396.569 106.401 396.345 105.323 396.345 104.094C396.345 102.865 396.569 101.781 397.017 100.844C397.47 99.901 398.1 99.1667 398.907 98.6406C399.72 98.1094 400.668 97.8438 401.751 97.8438C402.376 97.8438 402.993 97.9479 403.603 98.1562C404.212 98.3646 404.767 98.7031 405.267 99.1719C405.767 99.6354 406.165 100.25 406.462 101.016C406.759 101.781 406.907 102.724 406.907 103.844V104.625H397.657V103.031H405.032C405.032 102.354 404.897 101.75 404.626 101.219C404.36 100.687 403.98 100.268 403.485 99.9609C402.996 99.6536 402.418 99.5 401.751 99.5C401.017 99.5 400.381 99.6823 399.845 100.047C399.313 100.406 398.905 100.875 398.618 101.453C398.332 102.031 398.188 102.651 398.188 103.312V104.375C398.188 105.281 398.345 106.049 398.657 106.68C398.975 107.305 399.415 107.781 399.978 108.109C400.54 108.432 401.194 108.594 401.938 108.594C402.423 108.594 402.86 108.526 403.251 108.391C403.647 108.25 403.988 108.042 404.274 107.766C404.561 107.484 404.782 107.135 404.938 106.719L406.72 107.219C406.532 107.823 406.217 108.354 405.774 108.812C405.332 109.266 404.785 109.62 404.134 109.875C403.483 110.125 402.751 110.25 401.938 110.25ZM411.556 102.781V110H409.712V98H411.493V99.875H411.649C411.931 99.2656 412.358 98.776 412.931 98.4063C413.504 98.0313 414.243 97.8438 415.149 97.8438C415.962 97.8438 416.673 98.0104 417.282 98.3437C417.892 98.6719 418.366 99.1719 418.704 99.8437C419.043 100.51 419.212 101.354 419.212 102.375V110H417.368V102.5C417.368 101.557 417.123 100.823 416.634 100.297C416.144 99.7656 415.472 99.5 414.618 99.5C414.03 99.5 413.504 99.6276 413.04 99.8828C412.582 100.138 412.22 100.51 411.954 101C411.688 101.49 411.556 102.083 411.556 102.781ZM427.8 98V99.5625H421.581V98H427.8ZM423.394 95.125H425.237V106.562C425.237 107.083 425.313 107.474 425.464 107.734C425.62 107.99 425.818 108.161 426.058 108.25C426.302 108.333 426.56 108.375 426.831 108.375C427.034 108.375 427.201 108.365 427.331 108.344C427.461 108.318 427.565 108.297 427.644 108.281L428.019 109.937C427.894 109.984 427.719 110.031 427.495 110.078C427.271 110.13 426.987 110.156 426.644 110.156C426.123 110.156 425.612 110.044 425.112 109.82C424.618 109.596 424.206 109.255 423.878 108.797C423.555 108.339 423.394 107.76 423.394 107.062V95.125ZM438.858 100.687L437.202 101.156C437.098 100.88 436.944 100.612 436.741 100.352C436.543 100.086 436.272 99.8672 435.929 99.6953C435.585 99.5234 435.145 99.4375 434.608 99.4375C433.874 99.4375 433.262 99.6068 432.772 99.9453C432.288 100.279 432.046 100.703 432.046 101.219C432.046 101.677 432.213 102.039 432.546 102.305C432.879 102.57 433.4 102.792 434.108 102.969L435.89 103.406C436.963 103.667 437.762 104.065 438.288 104.602C438.814 105.133 439.077 105.818 439.077 106.656C439.077 107.344 438.879 107.958 438.483 108.5C438.093 109.042 437.546 109.469 436.843 109.781C436.14 110.094 435.322 110.25 434.39 110.25C433.166 110.25 432.153 109.984 431.351 109.453C430.549 108.922 430.041 108.146 429.827 107.125L431.577 106.687C431.744 107.333 432.059 107.818 432.522 108.141C432.991 108.464 433.603 108.625 434.358 108.625C435.218 108.625 435.9 108.443 436.405 108.078C436.916 107.708 437.171 107.266 437.171 106.75C437.171 106.333 437.025 105.984 436.733 105.703C436.442 105.417 435.994 105.203 435.39 105.062L433.39 104.594C432.291 104.333 431.483 103.93 430.968 103.383C430.457 102.831 430.202 102.141 430.202 101.312C430.202 100.635 430.392 100.036 430.772 99.5156C431.158 98.9948 431.681 98.5859 432.343 98.2891C433.009 97.9922 433.765 97.8438 434.608 97.8438C435.796 97.8438 436.728 98.1042 437.405 98.625C438.088 99.1458 438.572 99.8333 438.858 100.687Z" fill="#545454"/>
<path d="M555.577 17.0909V68H549.412V23.554H549.114L536.685 31.8068V25.5426L549.412 17.0909H555.577ZM586.823 68.696C583.078 68.696 579.888 67.6768 577.253 65.6385C574.618 63.5836 572.604 60.6089 571.212 56.7145C569.82 52.8035 569.124 48.0805 569.124 42.5455C569.124 37.0436 569.82 32.3454 571.212 28.451C572.621 24.54 574.643 21.5571 577.278 19.5021C579.929 17.4306 583.111 16.3949 586.823 16.3949C590.535 16.3949 593.709 17.4306 596.344 19.5021C598.995 21.5571 601.017 24.54 602.409 28.451C603.818 32.3454 604.522 37.0436 604.522 42.5455C604.522 48.0805 603.826 52.8035 602.434 56.7145C601.042 60.6089 599.028 63.5836 596.394 65.6385C593.759 67.6768 590.569 68.696 586.823 68.696ZM586.823 63.2273C590.535 63.2273 593.419 61.4375 595.474 57.858C597.529 54.2784 598.556 49.1742 598.556 42.5455C598.556 38.1373 598.084 34.3838 597.139 31.2848C596.211 28.1858 594.869 25.8243 593.112 24.2003C591.372 22.5762 589.276 21.7642 586.823 21.7642C583.144 21.7642 580.269 23.5788 578.198 27.2081C576.126 30.8208 575.09 35.9332 575.09 42.5455C575.09 46.9536 575.554 50.6989 576.482 53.7812C577.41 56.8636 578.744 59.2086 580.484 60.8161C582.241 62.4235 584.354 63.2273 586.823 63.2273ZM630.573 68.696C626.828 68.696 623.638 67.6768 621.003 65.6385C618.368 63.5836 616.354 60.6089 614.962 56.7145C613.57 52.8035 612.874 48.0805 612.874 42.5455C612.874 37.0436 613.57 32.3454 614.962 28.451C616.371 24.54 618.393 21.5571 621.028 19.5021C623.679 17.4306 626.861 16.3949 630.573 16.3949C634.285 16.3949 637.459 17.4306 640.094 19.5021C642.745 21.5571 644.767 24.54 646.159 28.451C647.568 32.3454 648.272 37.0436 648.272 42.5455C648.272 48.0805 647.576 52.8035 646.184 56.7145C644.792 60.6089 642.778 63.5836 640.144 65.6385C637.509 67.6768 634.319 68.696 630.573 68.696ZM630.573 63.2273C634.285 63.2273 637.169 61.4375 639.224 57.858C641.279 54.2784 642.306 49.1742 642.306 42.5455C642.306 38.1373 641.834 34.3838 640.889 31.2848C639.961 28.1858 638.619 25.8243 636.862 24.2003C635.122 22.5762 633.026 21.7642 630.573 21.7642C626.894 21.7642 624.019 23.5788 621.948 27.2081C619.876 30.8208 618.84 35.9332 618.84 42.5455C618.84 46.9536 619.304 50.6989 620.232 53.7812C621.16 56.8636 622.494 59.2086 624.234 60.8161C625.991 62.4235 628.104 63.2273 630.573 63.2273ZM672.732 59.0511V26.2386H678.301V59.0511H672.732ZM659.11 45.429V39.8608H691.923V45.429H659.11ZM556.255 94H558.192V104.594C558.192 105.687 557.935 106.664 557.419 107.523C556.909 108.378 556.187 109.052 555.255 109.547C554.323 110.036 553.229 110.281 551.974 110.281C550.718 110.281 549.625 110.036 548.692 109.547C547.76 109.052 547.036 108.378 546.521 107.523C546.01 106.664 545.755 105.687 545.755 104.594V94H547.692V104.438C547.692 105.219 547.864 105.914 548.208 106.523C548.552 107.128 549.041 107.604 549.677 107.953C550.317 108.297 551.083 108.469 551.974 108.469C552.864 108.469 553.63 108.297 554.271 107.953C554.911 107.604 555.401 107.128 555.739 106.523C556.083 105.914 556.255 105.219 556.255 104.438V94ZM563.655 102.781V110H561.812V98H563.593V99.875H563.749C564.03 99.2656 564.457 98.776 565.03 98.4063C565.603 98.0313 566.343 97.8438 567.249 97.8438C568.062 97.8438 568.772 98.0104 569.382 98.3437C569.991 98.6719 570.465 99.1719 570.804 99.8437C571.142 100.51 571.312 101.354 571.312 102.375V110H569.468V102.5C569.468 101.557 569.223 100.823 568.733 100.297C568.244 99.7656 567.572 99.5 566.718 99.5C566.129 99.5 565.603 99.6276 565.14 99.8828C564.681 100.138 564.319 100.51 564.054 101C563.788 101.49 563.655 102.083 563.655 102.781ZM574.681 110V98H576.524V110H574.681ZM575.618 96C575.259 96 574.949 95.8776 574.688 95.6328C574.433 95.388 574.306 95.0938 574.306 94.75C574.306 94.4063 574.433 94.112 574.688 93.8672C574.949 93.6224 575.259 93.5 575.618 93.5C575.978 93.5 576.285 93.6224 576.54 93.8672C576.8 94.112 576.931 94.4063 576.931 94.75C576.931 95.0938 576.8 95.388 576.54 95.6328C576.285 95.8776 575.978 96 575.618 96ZM588.089 114.5V108.156H587.933C587.797 108.375 587.604 108.651 587.354 108.984C587.104 109.312 586.748 109.607 586.284 109.867C585.821 110.122 585.203 110.25 584.433 110.25C583.433 110.25 582.55 109.997 581.784 109.492C581.019 108.982 580.42 108.263 579.987 107.336C579.555 106.404 579.339 105.302 579.339 104.031C579.339 102.771 579.555 101.677 579.987 100.75C580.42 99.8229 581.021 99.1068 581.792 98.6016C582.563 98.0964 583.453 97.8438 584.464 97.8438C585.245 97.8438 585.862 97.974 586.315 98.2344C586.774 98.4896 587.123 98.7812 587.362 99.1094C587.607 99.4323 587.797 99.6979 587.933 99.9062H588.151V98H589.933V114.5H588.089ZM584.683 108.594C585.422 108.594 586.047 108.401 586.558 108.016C587.068 107.625 587.456 107.086 587.722 106.398C587.987 105.706 588.12 104.906 588.12 104C588.12 103.104 587.99 102.32 587.729 101.648C587.469 100.971 587.084 100.445 586.573 100.07C586.063 99.6901 585.433 99.5 584.683 99.5C583.901 99.5 583.25 99.7005 582.729 100.102C582.214 100.497 581.826 101.036 581.565 101.719C581.31 102.396 581.183 103.156 581.183 104C581.183 104.854 581.313 105.63 581.573 106.328C581.839 107.021 582.229 107.573 582.745 107.984C583.266 108.391 583.912 108.594 584.683 108.594ZM600.87 105.094V98H602.714V110H600.87V107.969H600.745C600.464 108.578 600.026 109.096 599.433 109.523C598.839 109.945 598.089 110.156 597.183 110.156C596.433 110.156 595.766 109.992 595.183 109.664C594.599 109.331 594.141 108.831 593.808 108.164C593.474 107.492 593.308 106.646 593.308 105.625V98H595.151V105.5C595.151 106.375 595.396 107.073 595.886 107.594C596.381 108.115 597.011 108.375 597.776 108.375C598.235 108.375 598.701 108.258 599.175 108.023C599.654 107.789 600.055 107.43 600.378 106.945C600.706 106.461 600.87 105.844 600.87 105.094ZM611.122 110.25C609.966 110.25 608.968 109.995 608.13 109.484C607.297 108.969 606.653 108.25 606.2 107.328C605.752 106.401 605.528 105.323 605.528 104.094C605.528 102.865 605.752 101.781 606.2 100.844C606.653 99.901 607.284 99.1667 608.091 98.6406C608.903 98.1094 609.851 97.8438 610.935 97.8438C611.56 97.8438 612.177 97.9479 612.786 98.1562C613.396 98.3646 613.95 98.7031 614.45 99.1719C614.95 99.6354 615.349 100.25 615.646 101.016C615.942 101.781 616.091 102.724 616.091 103.844V104.625H606.841V103.031H614.216C614.216 102.354 614.08 101.75 613.81 101.219C613.544 100.687 613.164 100.268 612.669 99.9609C612.179 99.6536 611.601 99.5 610.935 99.5C610.2 99.5 609.565 99.6823 609.028 100.047C608.497 100.406 608.088 100.875 607.802 101.453C607.515 102.031 607.372 102.651 607.372 103.312V104.375C607.372 105.281 607.528 106.049 607.841 106.68C608.159 107.305 608.599 107.781 609.161 108.109C609.724 108.432 610.377 108.594 611.122 108.594C611.606 108.594 612.044 108.526 612.435 108.391C612.83 108.25 613.172 108.042 613.458 107.766C613.744 107.484 613.966 107.135 614.122 106.719L615.903 107.219C615.716 107.823 615.401 108.354 614.958 108.812C614.515 109.266 613.968 109.62 613.317 109.875C612.666 110.125 611.935 110.25 611.122 110.25ZM634.083 98C633.989 97.2083 633.609 96.5938 632.942 96.1562C632.276 95.7187 631.458 95.5 630.489 95.5C629.781 95.5 629.161 95.6146 628.63 95.8437C628.104 96.0729 627.692 96.388 627.396 96.7891C627.104 97.1901 626.958 97.6458 626.958 98.1562C626.958 98.5833 627.06 98.9505 627.263 99.2578C627.471 99.5599 627.737 99.8125 628.06 100.016C628.382 100.214 628.721 100.378 629.075 100.508C629.429 100.633 629.755 100.734 630.052 100.812L631.677 101.25C632.093 101.359 632.557 101.51 633.067 101.703C633.583 101.896 634.075 102.159 634.544 102.492C635.018 102.82 635.409 103.242 635.716 103.758C636.023 104.273 636.177 104.906 636.177 105.656C636.177 106.521 635.95 107.302 635.497 108C635.049 108.698 634.393 109.253 633.528 109.664C632.669 110.076 631.625 110.281 630.396 110.281C629.25 110.281 628.257 110.096 627.419 109.727C626.586 109.357 625.929 108.841 625.45 108.18C624.976 107.518 624.708 106.75 624.646 105.875H626.646C626.698 106.479 626.901 106.979 627.255 107.375C627.614 107.766 628.067 108.057 628.614 108.25C629.166 108.437 629.76 108.531 630.396 108.531C631.135 108.531 631.799 108.411 632.388 108.172C632.976 107.927 633.442 107.589 633.786 107.156C634.13 106.719 634.302 106.208 634.302 105.625C634.302 105.094 634.153 104.661 633.856 104.328C633.56 103.995 633.169 103.724 632.685 103.516C632.2 103.307 631.677 103.125 631.114 102.969L629.146 102.406C627.896 102.047 626.906 101.534 626.177 100.867C625.448 100.201 625.083 99.3281 625.083 98.25C625.083 97.3542 625.325 96.5729 625.81 95.9062C626.299 95.2344 626.955 94.7135 627.778 94.3437C628.606 93.9687 629.531 93.7812 630.552 93.7812C631.583 93.7812 632.5 93.9661 633.302 94.3359C634.104 94.7005 634.739 95.2005 635.208 95.8359C635.682 96.4714 635.932 97.1927 635.958 98H634.083ZM644.331 98V99.5625H638.112V98H644.331ZM639.925 95.125H641.769V106.562C641.769 107.083 641.844 107.474 641.995 107.734C642.151 107.99 642.349 108.161 642.589 108.25C642.834 108.333 643.091 108.375 643.362 108.375C643.565 108.375 643.732 108.365 643.862 108.344C643.993 108.318 644.097 108.297 644.175 108.281L644.55 109.937C644.425 109.984 644.25 110.031 644.026 110.078C643.802 110.13 643.519 110.156 643.175 110.156C642.654 110.156 642.144 110.044 641.644 109.82C641.149 109.596 640.737 109.255 640.409 108.797C640.086 108.339 639.925 107.76 639.925 107.062V95.125ZM648.292 114.5C647.979 114.5 647.701 114.474 647.456 114.422C647.211 114.375 647.042 114.328 646.948 114.281L647.417 112.656C647.865 112.771 648.261 112.813 648.604 112.781C648.948 112.75 649.253 112.596 649.519 112.32C649.789 112.049 650.037 111.609 650.261 111L650.604 110.063L646.167 98H648.167L651.479 107.562H651.604L654.917 98H656.917L651.823 111.75C651.594 112.37 651.31 112.883 650.972 113.289C650.633 113.701 650.24 114.005 649.792 114.203C649.349 114.401 648.849 114.5 648.292 114.5ZM661.194 94V110H659.351V94H661.194ZM669.603 110.25C668.446 110.25 667.449 109.995 666.61 109.484C665.777 108.969 665.134 108.25 664.681 107.328C664.233 106.401 664.009 105.323 664.009 104.094C664.009 102.865 664.233 101.781 664.681 100.844C665.134 99.901 665.764 99.1667 666.571 98.6406C667.384 98.1094 668.332 97.8438 669.415 97.8438C670.04 97.8438 670.657 97.9479 671.267 98.1562C671.876 98.3646 672.431 98.7031 672.931 99.1719C673.431 99.6354 673.829 100.25 674.126 101.016C674.423 101.781 674.571 102.724 674.571 103.844V104.625H665.321V103.031H672.696C672.696 102.354 672.561 101.75 672.29 101.219C672.024 100.687 671.644 100.268 671.149 99.9609C670.66 99.6536 670.082 99.5 669.415 99.5C668.681 99.5 668.045 99.6823 667.509 100.047C666.978 100.406 666.569 100.875 666.282 101.453C665.996 102.031 665.853 102.651 665.853 103.312V104.375C665.853 105.281 666.009 106.049 666.321 106.68C666.639 107.305 667.079 107.781 667.642 108.109C668.204 108.432 668.858 108.594 669.603 108.594C670.087 108.594 670.524 108.526 670.915 108.391C671.311 108.25 671.652 108.042 671.938 107.766C672.225 107.484 672.446 107.135 672.603 106.719L674.384 107.219C674.196 107.823 673.881 108.354 673.438 108.812C672.996 109.266 672.449 109.62 671.798 109.875C671.147 110.125 670.415 110.25 669.603 110.25ZM685.876 100.687L684.22 101.156C684.116 100.88 683.962 100.612 683.759 100.352C683.561 100.086 683.29 99.8672 682.946 99.6953C682.603 99.5234 682.162 99.4375 681.626 99.4375C680.892 99.4375 680.28 99.6068 679.79 99.9453C679.306 100.279 679.063 100.703 679.063 101.219C679.063 101.677 679.23 102.039 679.563 102.305C679.897 102.57 680.418 102.792 681.126 102.969L682.907 103.406C683.98 103.667 684.78 104.065 685.306 104.602C685.832 105.133 686.095 105.818 686.095 106.656C686.095 107.344 685.897 107.958 685.501 108.5C685.11 109.042 684.563 109.469 683.86 109.781C683.157 110.094 682.34 110.25 681.407 110.25C680.183 110.25 679.17 109.984 678.368 109.453C677.566 108.922 677.058 108.146 676.845 107.125L678.595 106.687C678.761 107.333 679.076 107.818 679.54 108.141C680.009 108.464 680.621 108.625 681.376 108.625C682.235 108.625 682.918 108.443 683.423 108.078C683.933 107.708 684.188 107.266 684.188 106.75C684.188 106.333 684.043 105.984 683.751 105.703C683.459 105.417 683.011 105.203 682.407 105.062L680.407 104.594C679.308 104.333 678.501 103.93 677.985 103.383C677.475 102.831 677.22 102.141 677.22 101.312C677.22 100.635 677.41 100.036 677.79 99.5156C678.175 98.9948 678.699 98.5859 679.36 98.2891C680.027 97.9922 680.782 97.8438 681.626 97.8438C682.813 97.8438 683.746 98.1042 684.423 98.625C685.105 99.1458 685.59 99.8333 685.876 100.687Z" fill="#545454"/>
</svg>
